<svg width="200" height="200" viewBox="0 0 200 200" fill="none" xmlns="http://www.w3.org/2000/svg">
<rect width="200" height="200" rx="24" fill="none"/>
<path d="M37.4937 186.91H37.9436C38.6279 186.881 39.218 186.732 39.218 186.732L81.849 166.729L99.4717 151.057L82.6466 114.787C82.6466 114.787 39.7553 178.661 36.7713 183.377C34.9827 186.206 36.2175 186.849 37.4937 186.91Z" fill="#279EFF"/>
<path d="M119.173 32.8396L160.804 13.3075C160.804 13.3075 161.393 13.1595 162.077 13.1298H162.53C163.805 13.1915 165.039 13.8353 163.251 16.6635C160.267 21.3791 117.342 85.2491 117.342 85.2491L66.3546 57.6122L119.173 32.8396Z" fill="#279EFF"/>
<path d="M119.173 32.8396L66.3546 57.6122C66.3546 57.6122 57.1671 62.3196 61.4075 71.2632L89.7014 131.099C89.7014 131.099 103.522 156.232 75.6908 169.771C85.9224 164.967 113.051 152.155 126.387 145.857C130.365 143.978 133.115 142.679 133.824 142.345C136.907 140.894 141.251 133.224 137.494 125.284C133.32 116.444 112.813 72.4824 112.813 72.4824C112.813 72.4824 98.8227 47.6437 119.173 32.8396Z" fill="#279EFF"/>
</svg>
